<svg width="34" height="35" viewBox="0 0 34 35" fill="none" xmlns="http://www.w3.org/2000/svg">
<circle cx="17" cy="18" r="17" fill="#EDEDED"/>
<path opacity="0.4" d="M13.5332 24.6831L14.8582 25.6748C16.0332 26.5581 17.9665 26.5581 19.1415 25.6748L22.7249 22.9998C23.5165 22.4081 24.1665 21.1164 24.1665 20.1331V13.9331" stroke="#464646" stroke-width="1.5" stroke-linecap="round" stroke-linejoin="round"/>
<path d="M22.8168 11.6166C22.6918 11.5416 22.5585 11.475 22.4251 11.4166L18.2668 9.8583C17.5751 9.59997 16.4418 9.59997 15.7501 9.8583L11.5835 11.425C10.6251 11.7833 9.8418 12.9166 9.8418 13.9333V20.125C9.8418 21.1083 10.4918 22.4 11.2835 22.9916L11.4501 23.1166" stroke="#464646" stroke-width="1.5" stroke-linecap="round" stroke-linejoin="round"/>
<path d="M25.3327 9.6665L8.66602 26.3332" stroke="#464646" stroke-width="1.5" stroke-linecap="round" stroke-linejoin="round"/>
</svg>
