<svg width="34" height="35" viewBox="0 0 34 35" fill="none" xmlns="http://www.w3.org/2000/svg">
<circle cx="17" cy="18" r="17" fill="#EDEDED"/>
<path d="M17.0007 17.9998C19.3018 17.9998 21.1673 16.1344 21.1673 13.8332C21.1673 11.532 19.3018 9.6665 17.0007 9.6665C14.6995 9.6665 12.834 11.532 12.834 13.8332C12.834 16.1344 14.6995 17.9998 17.0007 17.9998Z" stroke="#464646" stroke-width="1.5" stroke-linecap="round" stroke-linejoin="round"/>
<path d="M23.0085 21.1167L20.0585 24.0667C19.9418 24.1834 19.8335 24.4 19.8085 24.5584L19.6502 25.6833C19.5919 26.0917 19.8752 26.375 20.2835 26.3167L21.4085 26.1583C21.5668 26.1333 21.7919 26.025 21.9002 25.9084L24.8502 22.9584C25.3585 22.45 25.6002 21.8583 24.8502 21.1083C24.1085 20.3667 23.5169 20.6083 23.0085 21.1167Z" stroke="#464646" stroke-width="1.5" stroke-miterlimit="10" stroke-linecap="round" stroke-linejoin="round"/>
<path d="M22.584 21.5415C22.834 22.4415 23.534 23.1415 24.434 23.3915" stroke="#464646" stroke-width="1.5" stroke-miterlimit="10" stroke-linecap="round" stroke-linejoin="round"/>
<path opacity="0.4" d="M9.8418 26.3333C9.8418 23.1083 13.0502 20.5 17.0002 20.5C17.8668 20.5 18.7001 20.625 19.4751 20.8583" stroke="#464646" stroke-width="1.5" stroke-linecap="round" stroke-linejoin="round"/>
</svg>
