<svg width="16" height="16" viewBox="0 0 16 16" fill="none" xmlns="http://www.w3.org/2000/svg">
<path d="M8.6663 7.83329C8.53964 7.83329 8.41297 7.78662 8.31297 7.68662C8.11964 7.49329 8.11964 7.17329 8.31297 6.97995L13.7796 1.51329C13.973 1.31995 14.293 1.31995 14.4863 1.51329C14.6796 1.70662 14.6796 2.02662 14.4863 2.21995L9.01964 7.68662C8.91964 7.78662 8.79297 7.83329 8.6663 7.83329Z" fill="#464646"/>
<path d="M14.6668 5.03337C14.3935 5.03337 14.1668 4.80671 14.1668 4.53337V1.83337H11.4668C11.1935 1.83337 10.9668 1.60671 10.9668 1.33337C10.9668 1.06004 11.1935 0.833374 11.4668 0.833374H14.6668C14.9401 0.833374 15.1668 1.06004 15.1668 1.33337V4.53337C15.1668 4.80671 14.9401 5.03337 14.6668 5.03337Z" fill="#464646"/>
<path d="M10.0007 15.1667H6.00065C2.38065 15.1667 0.833984 13.62 0.833984 10V6.00004C0.833984 2.38004 2.38065 0.833374 6.00065 0.833374H7.33398C7.60732 0.833374 7.83398 1.06004 7.83398 1.33337C7.83398 1.60671 7.60732 1.83337 7.33398 1.83337H6.00065C2.92732 1.83337 1.83398 2.92671 1.83398 6.00004V10C1.83398 13.0734 2.92732 14.1667 6.00065 14.1667H10.0007C13.074 14.1667 14.1673 13.0734 14.1673 10V8.66671C14.1673 8.39337 14.394 8.16671 14.6673 8.16671C14.9407 8.16671 15.1673 8.39337 15.1673 8.66671V10C15.1673 13.62 13.6207 15.1667 10.0007 15.1667Z" fill="#464646"/>
</svg>
