<svg width="24" height="24" viewBox="0 0 24 24" fill="none" xmlns="http://www.w3.org/2000/svg">
<path fill-rule="evenodd" clip-rule="evenodd" d="M10.759 3.25737C11.1505 3.08697 11.573 2.99902 12 2.99902C12.427 2.99902 12.8495 3.08697 13.241 3.25737C13.6325 3.42774 13.9847 3.67688 14.2757 3.98927L20.1655 10.2991C20.7019 10.875 21.0003 11.6333 21 12.4203V19.1903C21 19.6703 20.8093 20.1307 20.4699 20.4701C20.1304 20.8096 19.67 21.0003 19.19 21.0003H4.81C4.32996 21.0003 3.86958 20.8096 3.53014 20.4701C3.1907 20.1307 3 19.6703 3 19.1903V12.4205C2.99969 11.6335 3.29775 10.8754 3.8341 10.2995L9.7241 3.9895C10.0151 3.67711 10.3675 3.42774 10.759 3.25737ZM12 3.99902C11.7103 3.99902 11.4237 4.05869 11.158 4.1743C10.8924 4.28992 10.6534 4.459 10.4559 4.67102L4.5659 10.981C4.20213 11.3718 3.99975 11.8861 4 12.42L4 19.1903C4 19.4051 4.08534 19.6111 4.23724 19.763C4.38915 19.9149 4.59518 20.0003 4.81 20.0003H9V14.5002C9 14.1289 9.12214 13.7584 9.35997 13.473C9.60001 13.185 9.94723 13.0002 10.3333 13.0002H13.6667C14.0528 13.0002 14.4 13.185 14.64 13.473C14.8779 13.7584 15 14.1289 15 14.5002V20.0003H19.19C19.4048 20.0003 19.6109 19.9149 19.7628 19.763C19.9147 19.6111 20 19.4051 20 19.1903V12.4203C20.0003 11.8864 19.7981 11.372 19.4343 10.9813L13.5445 4.67144C13.347 4.45942 13.1076 4.28992 12.842 4.1743C12.5763 4.05869 12.2897 3.99902 12 3.99902ZM10.3333 14.0002C10.2774 14.0002 10.2007 14.0262 10.1282 14.1132C10.0535 14.2029 10 14.3411 10 14.5002V20.0002H14V14.5002C14 14.3411 13.9465 14.2029 13.8718 14.1132C13.7993 14.0262 13.7226 14.0002 13.6667 14.0002H10.3333Z" fill="#697786"/>
</svg>

