<svg width="42" height="42" viewBox="0 0 42 42" fill="none" xmlns="http://www.w3.org/2000/svg">
<circle cx="21" cy="21" r="21" fill="#FFEAEA"/>
<path d="M26 14.7188C25.625 14.4375 25.125 14.5625 24.9062 14.9375L24.4062 15.8125C24.2188 16.1562 24.3125 16.5625 24.5938 16.7812C25.9688 17.8125 26.7188 19.375 26.75 20.9688C26.75 23.9375 24.3438 26.25 21.5 26.25C18.5625 26.25 16.2188 23.9062 16.25 21C16.25 19.2812 17.0625 17.75 18.375 16.7812C18.6562 16.5625 18.75 16.1562 18.5625 15.8125L18.0625 14.9375C17.8438 14.5625 17.3438 14.4375 16.9688 14.7188C15 16.125 13.7188 18.4375 13.75 21.0312C13.75 25.2812 17.25 28.7812 21.5 28.75C25.7812 28.75 29.25 25.2812 29.25 21C29.25 18.4062 27.9688 16.125 26 14.7188ZM22.75 21.25V13.75C22.75 13.3438 22.4062 13 22 13H21C20.5625 13 20.25 13.3438 20.25 13.75V21.25C20.25 21.6875 20.5625 22 21 22H22C22.4062 22 22.75 21.6875 22.75 21.25Z" fill="#F24040"/>
</svg>
