<svg width="34" height="35" viewBox="0 0 34 35" fill="none" xmlns="http://www.w3.org/2000/svg">
<circle cx="17" cy="18" r="17" fill="#EDEDED"/>
<path opacity="0.4" d="M17 13.3667V16.1417" stroke="#464646" stroke-width="1.5" stroke-miterlimit="10" stroke-linecap="round"/>
<path d="M17.0171 9.6665C13.9504 9.6665 11.4671 12.1498 11.4671 15.2165V16.9665C11.4671 17.5332 11.2337 18.3832 10.9421 18.8665L9.88374 20.6332C9.23374 21.7248 9.68374 22.9415 10.8837 23.3415C14.8671 24.6665 19.1754 24.6665 23.1587 23.3415C24.2837 22.9665 24.7671 21.6498 24.1587 20.6332L23.1004 18.8665C22.8087 18.3832 22.5754 17.5248 22.5754 16.9665V15.2165C22.5671 12.1665 20.0671 9.6665 17.0171 9.6665Z" stroke="#464646" stroke-width="1.5" stroke-miterlimit="10" stroke-linecap="round"/>
<path opacity="0.4" d="M19.7746 23.6831C19.7746 25.2081 18.5246 26.4581 16.9996 26.4581C16.2413 26.4581 15.5413 26.1414 15.0413 25.6414C14.5413 25.1414 14.2246 24.4414 14.2246 23.6831" stroke="#464646" stroke-width="1.5" stroke-miterlimit="10"/>
</svg>
