<svg width="18" height="18" viewBox="0 0 18 18" fill="none" xmlns="http://www.w3.org/2000/svg">
<path d="M9.50992 2.97C9.86992 3.5025 10.0799 4.14 10.0799 4.83C10.0724 6.63 8.65492 8.0925 6.86992 8.1525C6.79492 8.145 6.70492 8.145 6.62242 8.1525C4.83742 8.0925 3.41992 6.63 3.41992 4.83C3.41992 2.9925 4.90492 1.5 6.74992 1.5" stroke="#848484" stroke-width="1.5" stroke-linecap="round" stroke-linejoin="round"/>
<path d="M12.3084 3C13.7634 3 14.9334 4.1775 14.9334 5.625C14.9334 7.0425 13.8084 8.1975 12.4059 8.25C12.3459 8.2425 12.2784 8.2425 12.2109 8.25" stroke="#848484" stroke-width="1.5" stroke-linecap="round" stroke-linejoin="round"/>
<path d="M3.11906 10.92C1.30406 12.135 1.30406 14.115 3.11906 15.3225C5.18156 16.7025 8.56406 16.7025 10.6266 15.3225C12.4416 14.1075 12.4416 12.1275 10.6266 10.92C8.57156 9.5475 5.18906 9.5475 3.11906 10.92Z" stroke="#848484" stroke-width="1.5" stroke-linecap="round" stroke-linejoin="round"/>
<path d="M13.7559 15C14.2959 14.8875 14.8059 14.67 15.2259 14.3475C16.3959 13.47 16.3959 12.0225 15.2259 11.145C14.8134 10.83 14.3109 10.62 13.7784 10.5" stroke="#848484" stroke-width="1.5" stroke-linecap="round" stroke-linejoin="round"/>
</svg>
