<svg width="34" height="35" viewBox="0 0 34 35" fill="none" xmlns="http://www.w3.org/2000/svg">
<circle cx="17" cy="18" r="17" fill="#EDEDED"/>
<path d="M14.6341 17.0582C14.5508 17.0498 14.4508 17.0498 14.3591 17.0582C12.3758 16.9915 10.8008 15.3665 10.8008 13.3665C10.8008 11.3248 12.4508 9.6665 14.5008 9.6665C16.5424 9.6665 18.2008 11.3248 18.2008 13.3665C18.1924 15.3665 16.6174 16.9915 14.6341 17.0582Z" stroke="#464646" stroke-width="1.5" stroke-linecap="round" stroke-linejoin="round"/>
<path opacity="0.4" d="M20.6747 11.3335C22.2914 11.3335 23.5914 12.6418 23.5914 14.2502C23.5914 15.8252 22.3414 17.1085 20.7831 17.1668C20.7164 17.1585 20.6414 17.1585 20.5664 17.1668" stroke="#464646" stroke-width="1.5" stroke-linecap="round" stroke-linejoin="round"/>
<path d="M10.4676 20.1335C8.45091 21.4835 8.45091 23.6835 10.4676 25.0252C12.7592 26.5585 16.5176 26.5585 18.8092 25.0252C20.8259 23.6752 20.8259 21.4752 18.8092 20.1335C16.5259 18.6085 12.7676 18.6085 10.4676 20.1335Z" stroke="#464646" stroke-width="1.5" stroke-linecap="round" stroke-linejoin="round"/>
<path opacity="0.4" d="M22.2832 24.6665C22.8832 24.5415 23.4499 24.2998 23.9165 23.9415C25.2165 22.9665 25.2165 21.3582 23.9165 20.3832C23.4582 20.0332 22.8999 19.7998 22.3082 19.6665" stroke="#464646" stroke-width="1.5" stroke-linecap="round" stroke-linejoin="round"/>
</svg>
